# xmcd
#
# Track frame offsets: 
#        150
#        17220
#        32349
#        49562
#        68372
#        83016
#        97265
#        112735
#        130530
#        147284
#        163019
#        180646
#
# Disc length: 2747 seconds
#
# Revision: 1
# Processed by: cddbd v1.5.2PL0 Copyright (c) Steve Scherf et al.
# Submitted via: ExactAudioCopy v0.99pb4
#
DISCID=8b0ab90c
DTITLE=Gloria Trevi - Una rosa blu
DYEAR=2007
DGENRE=Pop
TTITLE0=Psicofonía
TTITLE1=Pruébamelo
TTITLE2=Lo que una chica por amor es capaz
TTITLE3=Una rosa azul (Una rosa blu)
TTITLE4=Inmaculada
TTITLE5=Doña Pudor
TTITLE6=La vida se va
TTITLE7=El favor de la soledad
TTITLE8=La calle de la amargura
TTITLE9=Cinco minutos
TTITLE10=Lo que te toca [Con Olga Tañón]
TTITLE11=Psicofonía [Remix]
EXTD=
EXTT0=
EXTT1=
EXTT2=
EXTT3=
EXTT4=
EXTT5=
EXTT6=
EXTT7=
EXTT8=
EXTT9=
EXTT10=
EXTT11=
PLAYORDER=
